<?xml version="1.0" encoding="utf-8"?>
<!-- Generator: Adobe Illustrator 19.2.1, SVG Export Plug-In . SVG Version: 6.00 Build 0)  -->
<svg version="1.1" id="Layer_1" xmlns="http://www.w3.org/2000/svg" xmlns:xlink="http://www.w3.org/1999/xlink" x="0px" y="0px"
	 viewBox="0 0 13 11" style="enable-background:new 0 0 13 11;" xml:space="preserve">
<style type="text/css">
	.st0{clip-path:url(#SVGID_2_);fill:#010002;}
</style>
<g>
	<g>
		<defs>
			<rect id="SVGID_1_" width="13" height="11"/>
		</defs>
		<clipPath id="SVGID_2_">
			<use xlink:href="#SVGID_1_"  style="overflow:visible;"/>
		</clipPath>
		<path class="st0" d="M11.8,3.5c-0.4,0-0.7,0.3-0.7,0.7C11,4.7,11.4,5,11.8,5c0.4,0,0.7-0.3,0.7-0.7C12.5,3.8,12.2,3.5,11.8,3.5
			L11.8,3.5z M1.2,3.5c-0.4,0-0.7,0.3-0.7,0.7C0.5,4.7,0.8,5,1.2,5c0.4,0,0.7-0.3,0.7-0.7C1.9,3.8,1.6,3.5,1.2,3.5L1.2,3.5z
			 M9.6,2.2C9,2.2,8.5,2.7,8.5,3.3c0,0.6,0.5,1.1,1.1,1.1c0.6,0,1.1-0.5,1.1-1.1C10.7,2.7,10.2,2.2,9.6,2.2L9.6,2.2z M13,8.8h-1.2
			V6.5c0-0.4-0.1-0.8-0.3-1.1c0.1,0,0.2-0.1,0.3-0.1C12.4,5.4,13,6,13,6.6V8.8z M3.4,2.2c-0.6,0-1.1,0.5-1.1,1.1
			c0,0.6,0.5,1.1,1.1,1.1c0.6,0,1.1-0.5,1.1-1.1C4.5,2.7,4,2.2,3.4,2.2L3.4,2.2z M1.2,5.4c0.1,0,0.2,0,0.3,0.1
			C1.4,5.8,1.2,6.1,1.2,6.5v2.3H0V6.6C0,6,0.5,5.4,1.2,5.4L1.2,5.4z M6.5,0C5.6,0,4.9,0.7,4.9,1.6c0,0.9,0.7,1.6,1.6,1.6
			c0.9,0,1.6-0.7,1.6-1.6C8.1,0.7,7.4,0,6.5,0L6.5,0z M11.3,9.7H9.4V6.2c0-0.5-0.1-0.9-0.3-1.3c0.2,0,0.3-0.1,0.5-0.1
			c1,0,1.7,0.8,1.7,1.7V9.7z M3.6,6.2v3.5H1.6V6.5c0-1,0.8-1.7,1.8-1.7c0.2,0,0.3,0,0.5,0.1C3.7,5.3,3.6,5.7,3.6,6.2L3.6,6.2z
			 M4,10.7H9V6.2c0-1.4-1.1-2.5-2.5-2.5C5.1,3.7,4,4.8,4,6.2V10.7z M4,10.7"/>
	</g>
</g>
</svg>
