<?xml version="1.0" encoding="utf-8"?>
<!-- Generator: Adobe Illustrator 19.2.1, SVG Export Plug-In . SVG Version: 6.00 Build 0)  -->
<svg version="1.1" id="Layer_1" xmlns="http://www.w3.org/2000/svg" xmlns:xlink="http://www.w3.org/1999/xlink" x="0px" y="0px"
	 viewBox="0 0 13 12.3" style="enable-background:new 0 0 13 12.3;" xml:space="preserve">
<style type="text/css">
	.st0{clip-path:url(#SVGID_2_);fill:#010002;}
</style>
<g>
	<g>
		<defs>
			<rect id="SVGID_1_" y="1.3" width="13" height="11"/>
		</defs>
		<clipPath id="SVGID_2_">
			<use xlink:href="#SVGID_1_"  style="overflow:visible;"/>
		</clipPath>
		<path class="st0" d="M11.8,4.9c-0.4,0-0.7,0.3-0.7,0.7c0,0.4,0.3,0.7,0.7,0.7c0.4,0,0.7-0.3,0.7-0.7C12.5,5.2,12.2,4.9,11.8,4.9
			L11.8,4.9z M1.2,4.9c-0.4,0-0.7,0.3-0.7,0.7c0,0.4,0.3,0.7,0.7,0.7c0.4,0,0.7-0.3,0.7-0.7C1.9,5.2,1.6,4.9,1.2,4.9L1.2,4.9z
			 M9.6,3.5C9,3.5,8.5,4,8.5,4.6c0,0.6,0.5,1.1,1.1,1.1c0.6,0,1.1-0.5,1.1-1.1C10.7,4,10.2,3.5,9.6,3.5L9.6,3.5z M13,10.2h-1.2V7.9
			c0-0.4-0.1-0.8-0.3-1.1c0.1,0,0.2-0.1,0.3-0.1c0.7,0,1.2,0.5,1.2,1.2V10.2z M3.4,3.5C2.8,3.5,2.3,4,2.3,4.6c0,0.6,0.5,1.1,1.1,1.1
			c0.6,0,1.1-0.5,1.1-1.1C4.5,4,4,3.5,3.4,3.5L3.4,3.5z M1.2,6.7c0.1,0,0.2,0,0.3,0.1C1.4,7.1,1.2,7.5,1.2,7.9v2.3H0V7.9
			C0,7.3,0.5,6.7,1.2,6.7L1.2,6.7z M6.5,1.3C5.6,1.3,4.9,2.1,4.9,3c0,0.9,0.7,1.6,1.6,1.6c0.9,0,1.6-0.7,1.6-1.6
			C8.1,2.1,7.4,1.3,6.5,1.3L6.5,1.3z M11.3,11H9.4V7.5c0-0.5-0.1-0.9-0.3-1.3c0.2,0,0.3-0.1,0.5-0.1c1,0,1.7,0.8,1.7,1.7V11z
			 M3.6,7.5V11H1.6V7.9c0-1,0.8-1.7,1.8-1.7c0.2,0,0.3,0,0.5,0.1C3.7,6.6,3.6,7.1,3.6,7.5L3.6,7.5z M4,12H9V7.5C9,6.1,7.9,5,6.5,5
			C5.1,5,4,6.1,4,7.5V12z M4,12"/>
	</g>
</g>
</svg>
