<?xml version="1.0" encoding="utf-8"?>
<!-- Generator: Adobe Illustrator 19.2.1, SVG Export Plug-In . SVG Version: 6.00 Build 0)  -->
<svg version="1.1" id="Layer_1" xmlns="http://www.w3.org/2000/svg" xmlns:xlink="http://www.w3.org/1999/xlink" x="0px" y="0px"
	 viewBox="0 0 300 390" style="enable-background:new 0 0 300 390;" xml:space="preserve">
<style type="text/css">
	.st0{clip-path:url(#SVGID_2_);}
</style>
<g>
	<g>
		<g>
			<defs>
				<rect id="SVGID_1_" y="0" width="300" height="390"/>
			</defs>
			<clipPath id="SVGID_2_">
				<use xlink:href="#SVGID_1_"  style="overflow:visible;"/>
			</clipPath>
			<path class="st0" d="M278.1,157.2h-7.6v-35.5C270.5,56,218.4,1.2,153.2,0c-1.8,0-5.3,0-7.1,0C81,1.2,28.8,56,28.8,121.7v35.5
				h-7.6c-11.7,0-21.2,12.1-21.2,27v178.1c0,14.9,9.5,27.1,21.2,27.1H278c11.7,0,21.2-12.2,21.2-27.1V184.2
				C299.3,169.3,289.7,157.2,278.1,157.2L278.1,157.2z M173.7,273.1v53.8c0,6.2-5.2,11.4-11.3,11.4h-25.5c-6.2,0-11.3-5.2-11.3-11.4
				v-53.8c-6-5.9-9.5-14-9.5-23c0-17.1,13.2-31.7,30-32.4c1.8-0.1,5.3-0.1,7.1,0c16.8,0.7,30,15.3,30,32.4
				C183.2,259.1,179.7,267.2,173.7,273.1L173.7,273.1z M220.5,157.2H78.8v-35.5c0-39.1,31.8-71.5,70.8-71.5s70.8,32.4,70.8,71.5
				L220.5,157.2L220.5,157.2z"/>
		</g>
	</g>
</g>
</svg>
